<?xml version="1.0" encoding="UTF-8" standalone="no"?>
<!DOCTYPE svg PUBLIC "-//W3C//DTD SVG 1.1//EN"
 "http://www.w3.org/Graphics/SVG/1.1/DTD/svg11.dtd">
<!-- Generated by graphviz version 2.40.1 (20161225.0304)
 -->
<!-- Title: %0 Pages: 1 -->
<svg width="748pt" height="2526pt"
 viewBox="0.00 0.00 747.72 2526.00" xmlns="http://www.w3.org/2000/svg" xmlns:xlink="http://www.w3.org/1999/xlink">
<g id="graph0" class="graph" transform="scale(1 1) rotate(0) translate(144 2382)">
<title>%0</title>
<polygon fill="#ffffff" stroke="transparent" points="-144,144 -144,-2382 603.721,-2382 603.721,144 -144,144"/>
<!-- customers -->
<g id="node1" class="node">
<title>customers</title>
<polygon fill="#4477c9" stroke="transparent" points="30,0 30,-218 135,-218 135,0 30,0"/>
<polygon fill="#add8e6" stroke="transparent" points="30.5,-200 30.5,-218 135.5,-218 135.5,-200 30.5,-200"/>
<polygon fill="none" stroke="#000000" points="30.5,-200 30.5,-218 135.5,-218 135.5,-200 30.5,-200"/>
<text text-anchor="start" x="62.5057" y="-206.9" font-family="Times,serif" font-weight="bold" font-style="italic" font-size="9.00" fill="#000000"> customers </text>
<polygon fill="none" stroke="#000000" points="30.5,-180 30.5,-200 135.5,-200 135.5,-180 30.5,-180"/>
<text text-anchor="start" x="35.5" y="-186.9" font-family="Times,serif" font-size="9.00" fill="#000000">email: String</text>
<polygon fill="none" stroke="#000000" points="30.5,-160 30.5,-180 135.5,-180 135.5,-160 30.5,-160"/>
<text text-anchor="start" x="35.5" y="-166.9" font-family="Times,serif" font-size="9.00" fill="#000000">name: String</text>
<polygon fill="none" stroke="#000000" points="30.5,-140 30.5,-160 135.5,-160 135.5,-140 30.5,-140"/>
<text text-anchor="start" x="35.5" y="-146.9" font-family="Times,serif" font-size="9.00" fill="#000000">phoneNumber: String</text>
<polygon fill="none" stroke="#000000" points="30.5,-120 30.5,-140 135.5,-140 135.5,-120 30.5,-120"/>
<text text-anchor="start" x="35.5" y="-126.9" font-family="Times,serif" font-size="9.00" fill="#000000">password: String</text>
<polygon fill="none" stroke="#000000" points="30.5,-100 30.5,-120 135.5,-120 135.5,-100 30.5,-100"/>
<text text-anchor="start" x="35.5" y="-106.9" font-family="Times,serif" font-size="9.00" fill="#000000">addresses: Array</text>
<polygon fill="none" stroke="#000000" points="30.5,-80 30.5,-100 135.5,-100 135.5,-80 30.5,-80"/>
<text text-anchor="start" x="35.5" y="-86.9" font-family="Times,serif" font-size="9.00" fill="#000000">pastLocations: Array</text>
<polygon fill="none" stroke="#000000" points="30.5,-60 30.5,-80 135.5,-80 135.5,-60 30.5,-60"/>
<text text-anchor="start" x="35.5" y="-66.9" font-family="Times,serif" font-size="9.00" fill="#000000">socialLogin: String</text>
<polygon fill="none" stroke="#000000" points="30.5,-40 30.5,-60 135.5,-60 135.5,-40 30.5,-40"/>
<text text-anchor="start" x="35.3931" y="-46.9" font-family="Times,serif" font-size="9.00" fill="#000000">previousRestaurant: Array</text>
<polygon fill="none" stroke="#000000" points="30.5,-20 30.5,-40 135.5,-40 135.5,-20 30.5,-20"/>
<text text-anchor="start" x="35.5" y="-26.9" font-family="Times,serif" font-size="9.00" fill="#000000">_id: ObjectId</text>
<polygon fill="none" stroke="#000000" points="30.5,0 30.5,-20 135.5,-20 135.5,0 30.5,0"/>
<text text-anchor="start" x="35.5" y="-6.9" font-family="Times,serif" font-size="9.00" fill="#000000">__v: Number</text>
</g>
<!-- identifierotps -->
<g id="node2" class="node">
<title>identifierotps</title>
<polygon fill="#4477c9" stroke="transparent" points="29,-290 29,-468 136,-468 136,-290 29,-290"/>
<polygon fill="#add8e6" stroke="transparent" points="29.5,-450 29.5,-468 136.5,-468 136.5,-450 29.5,-450"/>
<polygon fill="none" stroke="#000000" points="29.5,-450 29.5,-468 136.5,-468 136.5,-450 29.5,-450"/>
<text text-anchor="start" x="56.756" y="-456.9" font-family="Times,serif" font-weight="bold" font-style="italic" font-size="9.00" fill="#000000"> identifierotps </text>
<polygon fill="none" stroke="#000000" points="29.5,-430 29.5,-450 136.5,-450 136.5,-430 29.5,-430"/>
<text text-anchor="start" x="34.5" y="-436.9" font-family="Times,serif" font-size="9.00" fill="#000000">identifier: String</text>
<polygon fill="none" stroke="#000000" points="29.5,-410 29.5,-430 136.5,-430 136.5,-410 29.5,-410"/>
<text text-anchor="start" x="34.5" y="-416.9" font-family="Times,serif" font-size="9.00" fill="#000000">otp: String</text>
<polygon fill="none" stroke="#000000" points="29.5,-390 29.5,-410 136.5,-410 136.5,-390 29.5,-390"/>
<text text-anchor="start" x="34.5" y="-396.9" font-family="Times,serif" font-size="9.00" fill="#000000">firstAttempt: Date</text>
<polygon fill="none" stroke="#000000" points="29.5,-370 29.5,-390 136.5,-390 136.5,-370 29.5,-370"/>
<text text-anchor="start" x="34.5" y="-376.9" font-family="Times,serif" font-size="9.00" fill="#000000">attempts: Number</text>
<polygon fill="none" stroke="#000000" points="29.5,-350 29.5,-370 136.5,-370 136.5,-350 29.5,-350"/>
<text text-anchor="start" x="34.1435" y="-356.9" font-family="Times,serif" font-size="9.00" fill="#000000">identifierVerified: Boolean</text>
<polygon fill="none" stroke="#000000" points="29.5,-330 29.5,-350 136.5,-350 136.5,-330 29.5,-330"/>
<text text-anchor="start" x="34.5" y="-336.9" font-family="Times,serif" font-size="9.00" fill="#000000">otpCreatedAt: Date</text>
<polygon fill="none" stroke="#000000" points="29.5,-310 29.5,-330 136.5,-330 136.5,-310 29.5,-310"/>
<text text-anchor="start" x="34.5" y="-316.9" font-family="Times,serif" font-size="9.00" fill="#000000">_id: ObjectId</text>
<polygon fill="none" stroke="#000000" points="29.5,-290 29.5,-310 136.5,-310 136.5,-290 29.5,-290"/>
<text text-anchor="start" x="34.5" y="-296.9" font-family="Times,serif" font-size="9.00" fill="#000000">__v: Number</text>
</g>
<!-- orders -->
<g id="node3" class="node">
<title>orders</title>
<polygon fill="#4477c9" stroke="transparent" points="13.5,-540 13.5,-958 151.5,-958 151.5,-540 13.5,-540"/>
<polygon fill="#add8e6" stroke="transparent" points="13.5,-940 13.5,-958 151.5,-958 151.5,-940 13.5,-940"/>
<polygon fill="none" stroke="#000000" points="13.5,-940 13.5,-958 151.5,-958 151.5,-940 13.5,-940"/>
<text text-anchor="start" x="69.0063" y="-946.9" font-family="Times,serif" font-weight="bold" font-style="italic" font-size="9.00" fill="#000000"> orders </text>
<polygon fill="none" stroke="#000000" points="13.5,-920 13.5,-940 151.5,-940 151.5,-920 13.5,-920"/>
<text text-anchor="start" x="18.5" y="-926.9" font-family="Times,serif" font-size="9.00" fill="#000000">customerId: ObjectId</text>
<polygon fill="none" stroke="#000000" points="13.5,-900 13.5,-920 151.5,-920 151.5,-900 13.5,-900"/>
<text text-anchor="start" x="18.5" y="-906.9" font-family="Times,serif" font-size="9.00" fill="#000000">restaurantId: ObjectId</text>
<polygon fill="none" stroke="#000000" points="13.5,-880 13.5,-900 151.5,-900 151.5,-880 13.5,-880"/>
<text text-anchor="start" x="18.5" y="-886.9" font-family="Times,serif" font-size="9.00" fill="#000000">orderId: String</text>
<polygon fill="none" stroke="#000000" points="13.5,-860 13.5,-880 151.5,-880 151.5,-860 13.5,-860"/>
<text text-anchor="start" x="18.5" y="-866.9" font-family="Times,serif" font-size="9.00" fill="#000000">customerName: String</text>
<polygon fill="none" stroke="#000000" points="13.5,-840 13.5,-860 151.5,-860 151.5,-840 13.5,-840"/>
<text text-anchor="start" x="18.5" y="-846.9" font-family="Times,serif" font-size="9.00" fill="#000000">orderDate: Date</text>
<polygon fill="none" stroke="#000000" points="13.5,-820 13.5,-840 151.5,-840 151.5,-820 13.5,-820"/>
<text text-anchor="start" x="18.5" y="-826.9" font-family="Times,serif" font-size="9.00" fill="#000000">orderDetails: Array</text>
<polygon fill="none" stroke="#000000" points="13.5,-800 13.5,-820 151.5,-820 151.5,-800 13.5,-800"/>
<text text-anchor="start" x="18.5" y="-806.9" font-family="Times,serif" font-size="9.00" fill="#000000">customerEmail: String</text>
<polygon fill="none" stroke="#000000" points="13.5,-780 13.5,-800 151.5,-800 151.5,-780 13.5,-780"/>
<text text-anchor="start" x="18.5" y="-786.9" font-family="Times,serif" font-size="9.00" fill="#000000">customerPreferences: Mixed</text>
<polygon fill="none" stroke="#000000" points="13.5,-760 13.5,-780 151.5,-780 151.5,-760 13.5,-760"/>
<text text-anchor="start" x="18.5" y="-766.9" font-family="Times,serif" font-size="9.00" fill="#000000">orderStatus: String</text>
<polygon fill="none" stroke="#000000" points="13.5,-740 13.5,-760 151.5,-760 151.5,-740 13.5,-740"/>
<text text-anchor="start" x="18.5" y="-746.9" font-family="Times,serif" font-size="9.00" fill="#000000">customerPhoneNumber: String</text>
<polygon fill="none" stroke="#000000" points="13.5,-720 13.5,-740 151.5,-740 151.5,-720 13.5,-720"/>
<text text-anchor="start" x="18.5" y="-726.9" font-family="Times,serif" font-size="9.00" fill="#000000">reason: String</text>
<polygon fill="none" stroke="#000000" points="13.5,-700 13.5,-720 151.5,-720 151.5,-700 13.5,-700"/>
<text text-anchor="start" x="18.5" y="-706.9" font-family="Times,serif" font-size="9.00" fill="#000000">payment_order_id: String</text>
<polygon fill="none" stroke="#000000" points="13.5,-680 13.5,-700 151.5,-700 151.5,-680 13.5,-680"/>
<text text-anchor="start" x="18.5" y="-686.9" font-family="Times,serif" font-size="9.00" fill="#000000">payment_id: String</text>
<polygon fill="none" stroke="#000000" points="13.5,-660 13.5,-680 151.5,-680 151.5,-660 13.5,-660"/>
<text text-anchor="start" x="18.3984" y="-666.9" font-family="Times,serif" font-size="9.00" fill="#000000">cashOnDeliveryAvailable: Boolean</text>
<polygon fill="none" stroke="#000000" points="13.5,-640 13.5,-660 151.5,-660 151.5,-640 13.5,-640"/>
<text text-anchor="start" x="18.5" y="-646.9" font-family="Times,serif" font-size="9.00" fill="#000000">payment_signature: String</text>
<polygon fill="none" stroke="#000000" points="13.5,-620 13.5,-640 151.5,-640 151.5,-620 13.5,-620"/>
<text text-anchor="start" x="18.5" y="-626.9" font-family="Times,serif" font-size="9.00" fill="#000000">payment_time: String</text>
<polygon fill="none" stroke="#000000" points="13.5,-600 13.5,-620 151.5,-620 151.5,-600 13.5,-600"/>
<text text-anchor="start" x="18.5" y="-606.9" font-family="Times,serif" font-size="9.00" fill="#000000">payment_amount: Number</text>
<polygon fill="none" stroke="#000000" points="13.5,-580 13.5,-600 151.5,-600 151.5,-580 13.5,-580"/>
<text text-anchor="start" x="18.5" y="-586.9" font-family="Times,serif" font-size="9.00" fill="#000000">payment_method: String</text>
<polygon fill="none" stroke="#000000" points="13.5,-560 13.5,-580 151.5,-580 151.5,-560 13.5,-560"/>
<text text-anchor="start" x="18.5" y="-566.9" font-family="Times,serif" font-size="9.00" fill="#000000">_id: ObjectId</text>
<polygon fill="none" stroke="#000000" points="13.5,-540 13.5,-560 151.5,-560 151.5,-540 13.5,-540"/>
<text text-anchor="start" x="18.5" y="-546.9" font-family="Times,serif" font-size="9.00" fill="#000000">__v: Number</text>
</g>
<!-- promocodes -->
<g id="node4" class="node">
<title>promocodes</title>
<polygon fill="#4477c9" stroke="transparent" points="370.721,-1075 370.721,-1173 459.721,-1173 459.721,-1075 370.721,-1075"/>
<polygon fill="#add8e6" stroke="transparent" points="371.221,-1155 371.221,-1173 460.221,-1173 460.221,-1155 371.221,-1155"/>
<polygon fill="none" stroke="#000000" points="371.221,-1155 371.221,-1173 460.221,-1173 460.221,-1155 371.221,-1155"/>
<text text-anchor="start" x="391.4773" y="-1161.9" font-family="Times,serif" font-weight="bold" font-style="italic" font-size="9.00" fill="#000000"> promocodes </text>
<polygon fill="none" stroke="#000000" points="371.221,-1135 371.221,-1155 460.221,-1155 460.221,-1135 371.221,-1135"/>
<text text-anchor="start" x="376.1147" y="-1141.9" font-family="Times,serif" font-size="9.00" fill="#000000">restaurantId: ObjectId</text>
<polygon fill="none" stroke="#000000" points="371.221,-1115 371.221,-1135 460.221,-1135 460.221,-1115 371.221,-1115"/>
<text text-anchor="start" x="376.221" y="-1121.9" font-family="Times,serif" font-size="9.00" fill="#000000">promoCodes: Array</text>
<polygon fill="none" stroke="#000000" points="371.221,-1095 371.221,-1115 460.221,-1115 460.221,-1095 371.221,-1095"/>
<text text-anchor="start" x="376.221" y="-1101.9" font-family="Times,serif" font-size="9.00" fill="#000000">_id: ObjectId</text>
<polygon fill="none" stroke="#000000" points="371.221,-1075 371.221,-1095 460.221,-1095 460.221,-1075 371.221,-1075"/>
<text text-anchor="start" x="376.221" y="-1081.9" font-family="Times,serif" font-size="9.00" fill="#000000">__v: Number</text>
</g>
<!-- restaurants -->
<g id="node5" class="node">
<title>restaurants</title>
<polygon fill="#4477c9" stroke="transparent" points="0,-1030 0,-1868 165,-1868 165,-1030 0,-1030"/>
<polygon fill="#add8e6" stroke="transparent" points=".5,-1850 .5,-1868 165.5,-1868 165.5,-1850 .5,-1850"/>
<polygon fill="none" stroke="#000000" points=".5,-1850 .5,-1868 165.5,-1868 165.5,-1850 .5,-1850"/>
<text text-anchor="start" x="61.26" y="-1856.9" font-family="Times,serif" font-weight="bold" font-style="italic" font-size="9.00" fill="#000000"> restaurants </text>
<polygon fill="none" stroke="#000000" points=".5,-1830 .5,-1850 165.5,-1850 165.5,-1830 .5,-1830"/>
<text text-anchor="start" x="5.5" y="-1836.9" font-family="Times,serif" font-size="9.00" fill="#000000">restaurantName: String</text>
<polygon fill="none" stroke="#000000" points=".5,-1810 .5,-1830 165.5,-1830 165.5,-1810 .5,-1810"/>
<text text-anchor="start" x="5.5" y="-1816.9" font-family="Times,serif" font-size="9.00" fill="#000000">restaurantVerified: Boolean</text>
<polygon fill="none" stroke="#000000" points=".5,-1790 .5,-1810 165.5,-1810 165.5,-1790 .5,-1790"/>
<text text-anchor="start" x="5.5" y="-1796.9" font-family="Times,serif" font-size="9.00" fill="#000000">restaurantUrl: String</text>
<polygon fill="none" stroke="#000000" points=".5,-1770 .5,-1790 165.5,-1790 165.5,-1770 .5,-1770"/>
<text text-anchor="start" x="5.5" y="-1776.9" font-family="Times,serif" font-size="9.00" fill="#000000">restaurantBackgroundImage: String</text>
<polygon fill="none" stroke="#000000" points=".5,-1750 .5,-1770 165.5,-1770 165.5,-1750 .5,-1750"/>
<text text-anchor="start" x="5.5" y="-1756.9" font-family="Times,serif" font-size="9.00" fill="#000000">restaurantPhoneNumber: String</text>
<polygon fill="none" stroke="#000000" points=".5,-1730 .5,-1750 165.5,-1750 165.5,-1730 .5,-1730"/>
<text text-anchor="start" x="5.5" y="-1736.9" font-family="Times,serif" font-size="9.00" fill="#000000">restaurantEmail: String</text>
<polygon fill="none" stroke="#000000" points=".5,-1710 .5,-1730 165.5,-1730 165.5,-1710 .5,-1710"/>
<text text-anchor="start" x="5.5" y="-1716.9" font-family="Times,serif" font-size="9.00" fill="#000000">restaurantStatus: String</text>
<polygon fill="none" stroke="#000000" points=".5,-1690 .5,-1710 165.5,-1710 165.5,-1690 .5,-1690"/>
<text text-anchor="start" x="5.5" y="-1696.9" font-family="Times,serif" font-size="9.00" fill="#000000">restaurantType: Array</text>
<polygon fill="none" stroke="#000000" points=".5,-1670 .5,-1690 165.5,-1690 165.5,-1670 .5,-1670"/>
<text text-anchor="start" x="5.5" y="-1676.9" font-family="Times,serif" font-size="9.00" fill="#000000">restaurantImages: Array</text>
<polygon fill="none" stroke="#000000" points=".5,-1650 .5,-1670 165.5,-1670 165.5,-1650 .5,-1650"/>
<text text-anchor="start" x="5.5" y="-1656.9" font-family="Times,serif" font-size="9.00" fill="#000000">restaurantId: ObjectId</text>
<polygon fill="none" stroke="#000000" points=".5,-1630 .5,-1650 165.5,-1650 165.5,-1630 .5,-1630"/>
<text text-anchor="start" x="5.5" y="-1636.9" font-family="Times,serif" font-size="9.00" fill="#000000">address: Embedded</text>
<polygon fill="none" stroke="#000000" points=".5,-1610 .5,-1630 165.5,-1630 165.5,-1610 .5,-1610"/>
<text text-anchor="start" x="5.5" y="-1616.9" font-family="Times,serif" font-size="9.00" fill="#000000">openTime: Mixed</text>
<polygon fill="none" stroke="#000000" points=".5,-1590 .5,-1610 165.5,-1610 165.5,-1590 .5,-1590"/>
<text text-anchor="start" x="5.5" y="-1596.9" font-family="Times,serif" font-size="9.00" fill="#000000">closeTime: Mixed</text>
<polygon fill="none" stroke="#000000" points=".5,-1570 .5,-1590 165.5,-1590 165.5,-1570 .5,-1570"/>
<text text-anchor="start" x="5.5" y="-1576.9" font-family="Times,serif" font-size="9.00" fill="#000000">gstNumber: String</text>
<polygon fill="none" stroke="#000000" points=".5,-1550 .5,-1570 165.5,-1570 165.5,-1550 .5,-1550"/>
<text text-anchor="start" x="5.5" y="-1556.9" font-family="Times,serif" font-size="9.00" fill="#000000">isPricingInclusiveOfGST: Boolean</text>
<polygon fill="none" stroke="#000000" points=".5,-1530 .5,-1550 165.5,-1550 165.5,-1530 .5,-1530"/>
<text text-anchor="start" x="5.5" y="-1536.9" font-family="Times,serif" font-size="9.00" fill="#000000">customGSTPercentage: Number</text>
<polygon fill="none" stroke="#000000" points=".5,-1510 .5,-1530 165.5,-1530 165.5,-1510 .5,-1510"/>
<text text-anchor="start" x="5.5" y="-1516.9" font-family="Times,serif" font-size="9.00" fill="#000000">placeId: String</text>
<polygon fill="none" stroke="#000000" points=".5,-1490 .5,-1510 165.5,-1510 165.5,-1490 .5,-1490"/>
<text text-anchor="start" x="5.5" y="-1496.9" font-family="Times,serif" font-size="9.00" fill="#000000">addOns: Array</text>
<polygon fill="none" stroke="#000000" points=".5,-1470 .5,-1490 165.5,-1490 165.5,-1470 .5,-1470"/>
<text text-anchor="start" x="5.5" y="-1476.9" font-family="Times,serif" font-size="9.00" fill="#000000">dishChoices: Array</text>
<polygon fill="none" stroke="#000000" points=".5,-1450 .5,-1470 165.5,-1470 165.5,-1450 .5,-1450"/>
<text text-anchor="start" x="5.5" y="-1456.9" font-family="Times,serif" font-size="9.00" fill="#000000">fssaiLicenseNumber: String</text>
<polygon fill="none" stroke="#000000" points=".5,-1430 .5,-1450 165.5,-1450 165.5,-1430 .5,-1430"/>
<text text-anchor="start" x="5.5" y="-1436.9" font-family="Times,serif" font-size="9.00" fill="#000000">social_links: Array</text>
<polygon fill="none" stroke="#000000" points=".5,-1410 .5,-1430 165.5,-1430 165.5,-1410 .5,-1410"/>
<text text-anchor="start" x="5.5" y="-1416.9" font-family="Times,serif" font-size="9.00" fill="#000000">cuisine: Array</text>
<polygon fill="none" stroke="#000000" points=".5,-1390 .5,-1410 165.5,-1410 165.5,-1390 .5,-1390"/>
<text text-anchor="start" x="5.5" y="-1396.9" font-family="Times,serif" font-size="9.00" fill="#000000">contact: Array</text>
<polygon fill="none" stroke="#000000" points=".5,-1370 .5,-1390 165.5,-1390 165.5,-1370 .5,-1370"/>
<text text-anchor="start" x="5.5" y="-1376.9" font-family="Times,serif" font-size="9.00" fill="#000000">showGoogleReview: Boolean</text>
<polygon fill="none" stroke="#000000" points=".5,-1350 .5,-1370 165.5,-1370 165.5,-1350 .5,-1350"/>
<text text-anchor="start" x="5.5" y="-1356.9" font-family="Times,serif" font-size="9.00" fill="#000000">googlePlaceId: String</text>
<polygon fill="none" stroke="#000000" points=".5,-1330 .5,-1350 165.5,-1350 165.5,-1330 .5,-1330"/>
<text text-anchor="start" x="5.5" y="-1336.9" font-family="Times,serif" font-size="9.00" fill="#000000">provideDelivery: Boolean</text>
<polygon fill="none" stroke="#000000" points=".5,-1310 .5,-1330 165.5,-1330 165.5,-1310 .5,-1310"/>
<text text-anchor="start" x="5.5" y="-1316.9" font-family="Times,serif" font-size="9.00" fill="#000000">maxDeliveryDistance: Number</text>
<polygon fill="none" stroke="#000000" points=".5,-1290 .5,-1310 165.5,-1310 165.5,-1290 .5,-1290"/>
<text text-anchor="start" x="5.5" y="-1296.9" font-family="Times,serif" font-size="9.00" fill="#000000">minOrderValueForFreeDelivery: Number</text>
<polygon fill="none" stroke="#000000" points=".5,-1270 .5,-1290 165.5,-1290 165.5,-1270 .5,-1270"/>
<text text-anchor="start" x="5.5" y="-1276.9" font-family="Times,serif" font-size="9.00" fill="#000000">deliveryFeeBelowMinValue: Number</text>
<polygon fill="none" stroke="#000000" points=".5,-1250 .5,-1270 165.5,-1270 165.5,-1250 .5,-1250"/>
<text text-anchor="start" x="5.5" y="-1256.9" font-family="Times,serif" font-size="9.00" fill="#000000">facebookUrl: String</text>
<polygon fill="none" stroke="#000000" points=".5,-1230 .5,-1250 165.5,-1250 165.5,-1230 .5,-1230"/>
<text text-anchor="start" x="5.5" y="-1236.9" font-family="Times,serif" font-size="9.00" fill="#000000">instagramUrl: String</text>
<polygon fill="none" stroke="#000000" points=".5,-1210 .5,-1230 165.5,-1230 165.5,-1210 .5,-1210"/>
<text text-anchor="start" x="5.5" y="-1216.9" font-family="Times,serif" font-size="9.00" fill="#000000">youtubeUrl: String</text>
<polygon fill="none" stroke="#000000" points=".5,-1190 .5,-1210 165.5,-1210 165.5,-1190 .5,-1190"/>
<text text-anchor="start" x="5.5" y="-1196.9" font-family="Times,serif" font-size="9.00" fill="#000000">twitterUrl: String</text>
<polygon fill="none" stroke="#000000" points=".5,-1170 .5,-1190 165.5,-1190 165.5,-1170 .5,-1170"/>
<text text-anchor="start" x="5.5" y="-1176.9" font-family="Times,serif" font-size="9.00" fill="#000000">linkedInUrl: String</text>
<polygon fill="none" stroke="#000000" points=".5,-1150 .5,-1170 165.5,-1170 165.5,-1150 .5,-1150"/>
<text text-anchor="start" x="5.5" y="-1156.9" font-family="Times,serif" font-size="9.00" fill="#000000">paymentgatewayData.iv: String</text>
<polygon fill="none" stroke="#000000" points=".5,-1130 .5,-1150 165.5,-1150 165.5,-1130 .5,-1130"/>
<text text-anchor="start" x="5.2832" y="-1136.9" font-family="Times,serif" font-size="9.00" fill="#000000">paymentgatewayData.gatewayData: Mixed</text>
<polygon fill="none" stroke="#000000" points=".5,-1110 .5,-1130 165.5,-1130 165.5,-1110 .5,-1110"/>
<text text-anchor="start" x="5.5" y="-1116.9" font-family="Times,serif" font-size="9.00" fill="#000000">paymentgatewayData.authTag: String</text>
<polygon fill="none" stroke="#000000" points=".5,-1090 .5,-1110 165.5,-1110 165.5,-1090 .5,-1090"/>
<text text-anchor="start" x="5.5" y="-1096.9" font-family="Times,serif" font-size="9.00" fill="#000000">websiteUrl: String</text>
<polygon fill="none" stroke="#000000" points=".5,-1070 .5,-1090 165.5,-1090 165.5,-1070 .5,-1070"/>
<text text-anchor="start" x="5.5" y="-1076.9" font-family="Times,serif" font-size="9.00" fill="#000000">openDays: Array</text>
<polygon fill="none" stroke="#000000" points=".5,-1050 .5,-1070 165.5,-1070 165.5,-1050 .5,-1050"/>
<text text-anchor="start" x="5.5" y="-1056.9" font-family="Times,serif" font-size="9.00" fill="#000000">_id: ObjectId</text>
<polygon fill="none" stroke="#000000" points=".5,-1030 .5,-1050 165.5,-1050 165.5,-1030 .5,-1030"/>
<text text-anchor="start" x="5.5" y="-1036.9" font-family="Times,serif" font-size="9.00" fill="#000000">__v: Number</text>
</g>
<!-- restaurants&#45;&gt;promocodes -->
<g id="edge1" class="edge">
<title>restaurants:39&#45;&gt;promocodes:0</title>
<path fill="none" stroke="#000000" stroke-dasharray="5,2" d="M165,-1060C264.1341,-1060 272.0869,-1145 371.221,-1145"/>
<text text-anchor="middle" x="267.8605" y="-1144.2" font-family="Times,serif" font-size="14.00" fill="#000000">restaurants&#45;promocodes</text>
<text text-anchor="middle" x="366.1677" y="-1132.4" font-family="Times,serif" font-size="14.00" fill="#000000">N</text>
<text text-anchor="middle" x="168.5" y="-1047.4" font-family="Times,serif" font-size="14.00" fill="#000000">1</text>
</g>
<!-- tables -->
<g id="node6" class="node">
<title>tables</title>
<polygon fill="#4477c9" stroke="transparent" points="370.721,-905 370.721,-1003 459.721,-1003 459.721,-905 370.721,-905"/>
<polygon fill="#add8e6" stroke="transparent" points="371.221,-985 371.221,-1003 460.221,-1003 460.221,-985 371.221,-985"/>
<polygon fill="none" stroke="#000000" points="371.221,-985 371.221,-1003 460.221,-1003 460.221,-985 371.221,-985"/>
<text text-anchor="start" x="402.9748" y="-991.9" font-family="Times,serif" font-weight="bold" font-style="italic" font-size="9.00" fill="#000000"> tables </text>
<polygon fill="none" stroke="#000000" points="371.221,-965 371.221,-985 460.221,-985 460.221,-965 371.221,-965"/>
<text text-anchor="start" x="376.1147" y="-971.9" font-family="Times,serif" font-size="9.00" fill="#000000">restaurantId: ObjectId</text>
<polygon fill="none" stroke="#000000" points="371.221,-945 371.221,-965 460.221,-965 460.221,-945 371.221,-945"/>
<text text-anchor="start" x="376.221" y="-951.9" font-family="Times,serif" font-size="9.00" fill="#000000">tables: Array</text>
<polygon fill="none" stroke="#000000" points="371.221,-925 371.221,-945 460.221,-945 460.221,-925 371.221,-925"/>
<text text-anchor="start" x="376.221" y="-931.9" font-family="Times,serif" font-size="9.00" fill="#000000">_id: ObjectId</text>
<polygon fill="none" stroke="#000000" points="371.221,-905 371.221,-925 460.221,-925 460.221,-905 371.221,-905"/>
<text text-anchor="start" x="376.221" y="-911.9" font-family="Times,serif" font-size="9.00" fill="#000000">__v: Number</text>
</g>
<!-- restaurants&#45;&gt;tables -->
<g id="edge2" class="edge">
<title>restaurants:39&#45;&gt;tables:0</title>
<path fill="none" stroke="#000000" stroke-dasharray="5,2" d="M165,-1060C186.0567,-1060 182.6022,-1039.4424 201,-1029.2 270.3706,-990.5802 291.8247,-975 371.221,-975"/>
<text text-anchor="middle" x="267.8605" y="-1033.2" font-family="Times,serif" font-size="14.00" fill="#000000">restaurants&#45;tables</text>
<text text-anchor="middle" x="366.1677" y="-962.4" font-family="Times,serif" font-size="14.00" fill="#000000">N</text>
<text text-anchor="middle" x="168.5" y="-1064.2" font-family="Times,serif" font-size="14.00" fill="#000000">1</text>
</g>
<!-- users -->
<g id="node7" class="node">
<title>users</title>
<polygon fill="#4477c9" stroke="transparent" points="26,-1940 26,-2238 139,-2238 139,-1940 26,-1940"/>
<polygon fill="#add8e6" stroke="transparent" points="26.5,-2220 26.5,-2238 139.5,-2238 139.5,-2220 26.5,-2220"/>
<polygon fill="none" stroke="#000000" points="26.5,-2220 26.5,-2238 139.5,-2238 139.5,-2220 26.5,-2220"/>
<text text-anchor="start" x="71.5043" y="-2226.9" font-family="Times,serif" font-weight="bold" font-style="italic" font-size="9.00" fill="#000000"> users </text>
<polygon fill="none" stroke="#000000" points="26.5,-2200 26.5,-2220 139.5,-2220 139.5,-2200 26.5,-2200"/>
<text text-anchor="start" x="31.5" y="-2206.9" font-family="Times,serif" font-size="9.00" fill="#000000">name: String</text>
<polygon fill="none" stroke="#000000" points="26.5,-2180 26.5,-2200 139.5,-2200 139.5,-2180 26.5,-2180"/>
<text text-anchor="start" x="31.5" y="-2186.9" font-family="Times,serif" font-size="9.00" fill="#000000">restaurantKey: ObjectId</text>
<polygon fill="none" stroke="#000000" points="26.5,-2160 26.5,-2180 139.5,-2180 139.5,-2160 26.5,-2160"/>
<text text-anchor="start" x="31.5" y="-2166.9" font-family="Times,serif" font-size="9.00" fill="#000000">email: String</text>
<polygon fill="none" stroke="#000000" points="26.5,-2140 26.5,-2160 139.5,-2160 139.5,-2140 26.5,-2140"/>
<text text-anchor="start" x="31.5" y="-2146.9" font-family="Times,serif" font-size="9.00" fill="#000000">phoneNumber: String</text>
<polygon fill="none" stroke="#000000" points="26.5,-2120 26.5,-2140 139.5,-2140 139.5,-2120 26.5,-2120"/>
<text text-anchor="start" x="31.5" y="-2126.9" font-family="Times,serif" font-size="9.00" fill="#000000">role: String</text>
<polygon fill="none" stroke="#000000" points="26.5,-2100 26.5,-2120 139.5,-2120 139.5,-2100 26.5,-2100"/>
<text text-anchor="start" x="31.5" y="-2106.9" font-family="Times,serif" font-size="9.00" fill="#000000">password: String</text>
<polygon fill="none" stroke="#000000" points="26.5,-2080 26.5,-2100 139.5,-2100 139.5,-2080 26.5,-2080"/>
<text text-anchor="start" x="31.5" y="-2086.9" font-family="Times,serif" font-size="9.00" fill="#000000">passwordChangedAt: Date</text>
<polygon fill="none" stroke="#000000" points="26.5,-2060 26.5,-2080 139.5,-2080 139.5,-2060 26.5,-2060"/>
<text text-anchor="start" x="31.1361" y="-2066.9" font-family="Times,serif" font-size="9.00" fill="#000000">passwordResetToken: String</text>
<polygon fill="none" stroke="#000000" points="26.5,-2040 26.5,-2060 139.5,-2060 139.5,-2040 26.5,-2040"/>
<text text-anchor="start" x="31.394" y="-2046.9" font-family="Times,serif" font-size="9.00" fill="#000000">passwordResetExpires: Date</text>
<polygon fill="none" stroke="#000000" points="26.5,-2020 26.5,-2040 139.5,-2040 139.5,-2020 26.5,-2020"/>
<text text-anchor="start" x="31.5" y="-2026.9" font-family="Times,serif" font-size="9.00" fill="#000000">emailOtp: String</text>
<polygon fill="none" stroke="#000000" points="26.5,-2000 26.5,-2020 139.5,-2020 139.5,-2000 26.5,-2000"/>
<text text-anchor="start" x="31.5" y="-2006.9" font-family="Times,serif" font-size="9.00" fill="#000000">emailVerified: Boolean</text>
<polygon fill="none" stroke="#000000" points="26.5,-1980 26.5,-2000 139.5,-2000 139.5,-1980 26.5,-1980"/>
<text text-anchor="start" x="31.5" y="-1986.9" font-family="Times,serif" font-size="9.00" fill="#000000">active: Boolean</text>
<polygon fill="none" stroke="#000000" points="26.5,-1960 26.5,-1980 139.5,-1980 139.5,-1960 26.5,-1960"/>
<text text-anchor="start" x="31.5" y="-1966.9" font-family="Times,serif" font-size="9.00" fill="#000000">_id: ObjectId</text>
<polygon fill="none" stroke="#000000" points="26.5,-1940 26.5,-1960 139.5,-1960 139.5,-1940 26.5,-1940"/>
<text text-anchor="start" x="31.5" y="-1946.9" font-family="Times,serif" font-size="9.00" fill="#000000">__v: Number</text>
</g>
</g>
</svg>
